<svg width="143" height="86" viewBox="0 0 143 86" fill="none" xmlns="http://www.w3.org/2000/svg">
<path d="M35.4352 85.36C34.1018 85.36 32.9018 85.1067 31.8352 84.6C30.7952 84.0667 29.9685 83.3467 29.3552 82.44C28.7418 81.5333 28.4352 80.52 28.4352 79.4C28.4352 77.96 28.7952 76.8267 29.5152 76C30.2618 75.1733 31.4752 74.5867 33.1552 74.24C34.8618 73.8933 37.1818 73.72 40.1152 73.72H41.9152V75.84H40.1552C37.9952 75.84 36.2885 75.9467 35.0352 76.16C33.8085 76.3467 32.9418 76.68 32.4352 77.16C31.9552 77.64 31.7152 78.32 31.7152 79.2C31.7152 80.2933 32.0885 81.1867 32.8352 81.88C33.6085 82.5733 34.6485 82.92 35.9552 82.92C37.0218 82.92 37.9552 82.6667 38.7552 82.16C39.5818 81.6533 40.2218 80.96 40.6752 80.08C41.1552 79.2 41.3952 78.1867 41.3952 77.04V72.48C41.3952 70.8267 41.0618 69.64 40.3952 68.92C39.7285 68.1733 38.6352 67.8 37.1152 67.8C36.1818 67.8 35.2485 67.92 34.3152 68.16C33.3818 68.4 32.3952 68.7867 31.3552 69.32C30.9818 69.5067 30.6618 69.5733 30.3952 69.52C30.1285 69.44 29.9152 69.2933 29.7552 69.08C29.5952 68.8667 29.5018 68.6267 29.4752 68.36C29.4485 68.0667 29.5018 67.7867 29.6352 67.52C29.7952 67.2533 30.0352 67.04 30.3552 66.88C31.5285 66.2933 32.6885 65.8667 33.8352 65.6C34.9818 65.3333 36.0752 65.2 37.1152 65.2C38.7952 65.2 40.1818 65.48 41.2752 66.04C42.3685 66.5733 43.1818 67.4 43.7152 68.52C44.2485 69.6133 44.5152 71.0267 44.5152 72.76V83.6C44.5152 84.1333 44.3818 84.5467 44.1152 84.84C43.8752 85.1333 43.5152 85.28 43.0352 85.28C42.5285 85.28 42.1418 85.1333 41.8752 84.84C41.6085 84.5467 41.4752 84.1333 41.4752 83.6V80.48H41.8352C41.6218 81.4933 41.2085 82.36 40.5952 83.08C40.0085 83.8 39.2752 84.36 38.3952 84.76C37.5152 85.16 36.5285 85.36 35.4352 85.36ZM52.3561 85C51.7694 85 51.3161 84.8533 50.9961 84.56C50.7028 84.24 50.5561 83.7867 50.5561 83.2V58.6C50.5561 58.0133 50.7028 57.5733 50.9961 57.28C51.3161 56.96 51.7694 56.8 52.3561 56.8H61.8361C63.7828 56.8 65.4228 57.0933 66.7561 57.68C68.1161 58.24 69.1561 59.0667 69.8761 60.16C70.5961 61.2533 70.9561 62.5867 70.9561 64.16C70.9561 65.92 70.4361 67.3867 69.3961 68.56C68.3828 69.7333 66.9961 70.5067 65.2361 70.88V70.32C67.2361 70.56 68.7961 71.28 69.9161 72.48C71.0628 73.68 71.6361 75.2667 71.6361 77.24C71.6361 79.7467 70.8228 81.6667 69.1961 83C67.5694 84.3333 65.2761 85 62.3161 85H52.3561ZM53.7561 82.36H61.9961C64.1294 82.36 65.7294 81.9333 66.7961 81.08C67.8628 80.2267 68.3961 78.9333 68.3961 77.2C68.3961 75.44 67.8628 74.1467 66.7961 73.32C65.7294 72.4667 64.1294 72.04 61.9961 72.04H53.7561V82.36ZM53.7561 69.4H61.3561C63.4361 69.4 65.0094 68.9733 66.0761 68.12C67.1694 67.2667 67.7161 66.04 67.7161 64.44C67.7161 62.7867 67.1694 61.5467 66.0761 60.72C65.0094 59.8667 63.4361 59.44 61.3561 59.44H53.7561V69.4ZM82.8573 85.36C81.524 85.36 80.324 85.1067 79.2573 84.6C78.2173 84.0667 77.3907 83.3467 76.7773 82.44C76.164 81.5333 75.8573 80.52 75.8573 79.4C75.8573 77.96 76.2173 76.8267 76.9373 76C77.684 75.1733 78.8973 74.5867 80.5773 74.24C82.284 73.8933 84.604 73.72 87.5373 73.72H89.3373V75.84H87.5773C85.4173 75.84 83.7107 75.9467 82.4573 76.16C81.2307 76.3467 80.364 76.68 79.8573 77.16C79.3773 77.64 79.1373 78.32 79.1373 79.2C79.1373 80.2933 79.5107 81.1867 80.2573 81.88C81.0307 82.5733 82.0707 82.92 83.3773 82.92C84.444 82.92 85.3773 82.6667 86.1773 82.16C87.004 81.6533 87.644 80.96 88.0973 80.08C88.5773 79.2 88.8173 78.1867 88.8173 77.04V72.48C88.8173 70.8267 88.484 69.64 87.8173 68.92C87.1507 68.1733 86.0573 67.8 84.5373 67.8C83.604 67.8 82.6707 67.92 81.7373 68.16C80.804 68.4 79.8173 68.7867 78.7773 69.32C78.404 69.5067 78.084 69.5733 77.8173 69.52C77.5507 69.44 77.3373 69.2933 77.1773 69.08C77.0173 68.8667 76.924 68.6267 76.8973 68.36C76.8707 68.0667 76.924 67.7867 77.0573 67.52C77.2173 67.2533 77.4573 67.04 77.7773 66.88C78.9507 66.2933 80.1107 65.8667 81.2573 65.6C82.404 65.3333 83.4973 65.2 84.5373 65.2C86.2173 65.2 87.604 65.48 88.6973 66.04C89.7907 66.5733 90.604 67.4 91.1373 68.52C91.6707 69.6133 91.9373 71.0267 91.9373 72.76V83.6C91.9373 84.1333 91.804 84.5467 91.5373 84.84C91.2973 85.1333 90.9373 85.28 90.4573 85.28C89.9507 85.28 89.564 85.1333 89.2973 84.84C89.0307 84.5467 88.8973 84.1333 88.8973 83.6V80.48H89.2573C89.044 81.4933 88.6307 82.36 88.0173 83.08C87.4307 83.8 86.6973 84.36 85.8173 84.76C84.9373 85.16 83.9507 85.36 82.8573 85.36ZM105.618 85.36C103.725 85.36 102.085 84.9467 100.698 84.12C99.3116 83.2933 98.2316 82.1333 97.4583 80.64C96.7116 79.12 96.3383 77.3333 96.3383 75.28C96.3383 73.7333 96.5516 72.3467 96.9783 71.12C97.4049 69.8667 98.0316 68.8 98.8583 67.92C99.6849 67.04 100.658 66.3733 101.778 65.92C102.925 65.44 104.205 65.2 105.618 65.2C107.512 65.2 109.152 65.6133 110.538 66.44C111.925 67.2667 112.992 68.44 113.738 69.96C114.512 71.4533 114.898 73.2267 114.898 75.28C114.898 76.8267 114.685 78.2133 114.258 79.44C113.832 80.6667 113.205 81.7333 112.378 82.64C111.552 83.52 110.565 84.2 109.418 84.68C108.298 85.1333 107.032 85.36 105.618 85.36ZM105.618 82.76C106.818 82.76 107.872 82.4667 108.778 81.88C109.685 81.2933 110.378 80.44 110.858 79.32C111.365 78.2 111.618 76.8533 111.618 75.28C111.618 72.8533 111.072 71 109.978 69.72C108.912 68.44 107.458 67.8 105.618 67.8C104.392 67.8 103.325 68.0933 102.418 68.68C101.538 69.24 100.845 70.08 100.338 71.2C99.8583 72.2933 99.6183 73.6533 99.6183 75.28C99.6183 77.68 100.165 79.5333 101.258 80.84C102.352 82.12 103.805 82.76 105.618 82.76Z" fill="url(#paint0_linear_348_386)"/>
<rect x="14" y="2" width="16" height="40" stroke="url(#paint1_linear_348_386)" stroke-width="4"/>
<rect x="45" y="9" width="12" height="8" fill="url(#paint2_linear_348_386)" stroke="url(#paint3_linear_348_386)" stroke-width="4"/>
<line x1="62" y1="12" x2="93" y2="12" stroke="url(#paint4_linear_348_386)" stroke-width="2"/>
<line x1="62" y1="18" x2="93" y2="18" stroke="url(#paint5_linear_348_386)" stroke-width="2"/>
<line x1="43" y1="24" x2="93" y2="24" stroke="url(#paint6_linear_348_386)" stroke-width="2"/>
<line x1="43" y1="30" x2="93" y2="30" stroke="url(#paint7_linear_348_386)" stroke-width="2"/>
<line x1="43" y1="36" x2="93" y2="36" stroke="url(#paint8_linear_348_386)" stroke-width="2"/>
<rect x="38" y="2" width="60" height="40" stroke="url(#paint9_linear_348_386)" stroke-width="4"/>
<path d="M106 2H116C127.046 2 136 10.9543 136 22V22C136 33.0457 127.046 42 116 42H106V2Z" stroke="url(#paint10_linear_348_386)" stroke-width="4"/>
<defs>
<linearGradient id="paint0_linear_348_386" x1="0" y1="61" x2="19.6128" y2="133.575" gradientUnits="userSpaceOnUse">
<stop stop-color="#FF3A44"/>
<stop offset="1" stop-color="#FF8086"/>
</linearGradient>
<linearGradient id="paint1_linear_348_386" x1="14" y1="2" x2="44.653" y2="8.98019" gradientUnits="userSpaceOnUse">
<stop stop-color="#FF3A44"/>
<stop offset="1" stop-color="#FF8086"/>
</linearGradient>
<linearGradient id="paint2_linear_348_386" x1="45" y1="9" x2="58.9844" y2="20.9418" gradientUnits="userSpaceOnUse">
<stop stop-color="#FF3A44"/>
<stop offset="1" stop-color="#FF8086"/>
</linearGradient>
<linearGradient id="paint3_linear_348_386" x1="45" y1="9" x2="58.9844" y2="20.9418" gradientUnits="userSpaceOnUse">
<stop stop-color="#FF3A44"/>
<stop offset="1" stop-color="#FF8086"/>
</linearGradient>
<linearGradient id="paint4_linear_348_386" x1="62" y1="13" x2="62.1999" y2="16.5284" gradientUnits="userSpaceOnUse">
<stop stop-color="#FF3A44"/>
<stop offset="1" stop-color="#FF8086"/>
</linearGradient>
<linearGradient id="paint5_linear_348_386" x1="62" y1="19" x2="62.1999" y2="22.5284" gradientUnits="userSpaceOnUse">
<stop stop-color="#FF3A44"/>
<stop offset="1" stop-color="#FF8086"/>
</linearGradient>
<linearGradient id="paint6_linear_348_386" x1="43" y1="25" x2="43.1242" y2="28.5354" gradientUnits="userSpaceOnUse">
<stop stop-color="#FF3A44"/>
<stop offset="1" stop-color="#FF8086"/>
</linearGradient>
<linearGradient id="paint7_linear_348_386" x1="43" y1="31" x2="43.1242" y2="34.5354" gradientUnits="userSpaceOnUse">
<stop stop-color="#FF3A44"/>
<stop offset="1" stop-color="#FF8086"/>
</linearGradient>
<linearGradient id="paint8_linear_348_386" x1="43" y1="37" x2="43.1242" y2="40.5354" gradientUnits="userSpaceOnUse">
<stop stop-color="#FF3A44"/>
<stop offset="1" stop-color="#FF8086"/>
</linearGradient>
<linearGradient id="paint9_linear_348_386" x1="38" y1="2" x2="107.922" y2="61.7089" gradientUnits="userSpaceOnUse">
<stop stop-color="#FF3A44"/>
<stop offset="1" stop-color="#FF8086"/>
</linearGradient>
<linearGradient id="paint10_linear_348_386" x1="106" y1="2" x2="157.133" y2="23.8322" gradientUnits="userSpaceOnUse">
<stop stop-color="#FF3A44"/>
<stop offset="1" stop-color="#FF8086"/>
</linearGradient>
</defs>
</svg>
